<svg width="685" height="685" viewBox="0 0 685 685" fill="none" xmlns="http://www.w3.org/2000/svg">
<path d="M340 0C342 0 344 0 347 2C389.062 35.5109 424.937 76.1233 453 122C489 100 528 89 571 89C583 132 584 176 576 221L577 224C604 217 632 216 660 221L678 227L677 233L658 282L634 370C627 388 618 405 607 421L619 428L644 445C658 459 672 474 684 491C685 493 684 496 682 498L662 511C643 527 623 541 602 552C577 562 552 569 527 573C529 579 532 586 533 593C536 611 537 629 536 648L533 662C511 662 490 660 469 655C439 649 414 635 393 615C379 638 363 661 347 683C345 684 342 685 339 684C322 662 306 639 292 615C277 628 261 639 243 647C213 658 182 663 151 662L148 651C147 631 148 611 151 592C153.5 592.5 154 593 157 593L171 594C169.786 609.319 168.786 624.653 168 640L206 635C236 630 262 615 284 593C279 580 277 567 277 554C261 564 243 570 225 572L244 547L279 528C302 514 322 496 340 475H346C362 495 381 513 403 527C429 543 458 551 490 550L457 527L465 506C483 516 499 530 513 546L518 549C543 548 568 542 593 532C615 520 636 506 655 489L624 457L591 439L572 457C541 479 506 491 469 494C470 486 472 479 475 472C491 469 507 464 523 459C571 438 603 402 617 352C624.747 314.653 635.105 277.896 648 242C623 239 600 240 577 247C554 256 534 270 518 289L525 254C533 246 541 240 550 236C561 195 563 153 554 112C519 114 488 125 460 144L469 178L449 177L441 156C419 172 403 193 391 218C381 192 368 168 352 147L342 137C337 140 334 144 330 149C314 169 302 192 294 218L282 198C271 181 258 167 242 156C238 162 236 169 236 177H215C216 165 219 155 224 145C196 124 164 113 130 113L125 149C123 173 124 197 130 222C131 227 133 232 138 236C153 245 168 255 180 269C182 278 182 288 181 299L144 265L132 257C101 241 68 237 35 243L46 272L73 368L83 390C105 430 138 455 183 466V489C149.038 481.906 117.812 465.251 93 441C67 451 46 467 30 490C47 506 67 520 89 532C92 541 96 550 102 559L101 560C70 549 44 533 22 511L0 496V491C13 475 27 460 42 445C53 436 65 428 79 422C67 406 58 388 51 370L25 278L6 232C5 229 6 227 9 225C42 216 75 215 108 224L104 196L103 165C104 140 107 115 111 91L114 88C157 88 196 100 232 124C240 110 248 96 258 84C265 74 273 64 283 56C302.723 38.0843 321.738 19.4033 340 0ZM342 506C328 519 313 531 298 542C296 544 295 548 296 551C296 559 297 566 299 574C308 603 322 628 343 651C357 633 369 614 379 594C386 577 389 560 389 543L378 536L342 506ZM409 556C408 568 406 580 402 592C410 602 420 611 432 618C458 632 486 639 517 640L513 600C512 591 509 582 506 574C472 575 439 569 409 556ZM255 196C258 196 258 196 258 199C249.438 208.358 242.66 219.203 238 231C235.871 320.992 236.205 411.026 239 501C238 524 229 544 212 560C201.688 566.519 190.036 570.625 177.915 572.01C165.794 573.395 153.517 572.024 142 568L125 557C117.423 551.32 111.616 543.605 108.252 534.754C104.888 525.902 104.107 516.278 106 507L108 505H141V511C140 534 150 545 174 545L185 541L194 533C198 524 201 514 202 505C203 412 203 320 201 229C199 226 197 225 195 224L167 223L151 203V196H255ZM532 197L531 205C522 209 517 216 514 226C496 309 476 391 455 474L442 512V515H411L342 323L272 515L255 514L256 505L257 465L322 279C323 273 322 267 319 263C313 255 306 248 298 244C296 240 296 237 299 235H387L385 247C380 250 376 254 372 259C365 265 363 273 365 283L423 454C441.347 381.67 459.68 309.337 478 237L476 227C470 218 462 212 452 209L449.5 206.5L448.5 206H448V197L454 196L532 197ZM342 28C322 45 303 64 285 85C272 100 260 116 252 135C267 146 279 159 290 175C303 150 318 128 338 109H345C364 128 380 150 393 174C405 160 418 147 432 136V133C425 118 416 105 406 93C386 69 365 47 342 28Z" fill="#7A6238"/>
</svg>
